<?xml version="1.0" standalone="no"?>
<svg xmlns="http://www.w3.org/2000/svg" viewBox="0 0 227.93 36" width="227.93" height="36"><g fill="#bba364" color="#bba364" transform="translate(0 4) scale(0.3111112)"><svg width="90.0" height="90.0" x="0.0" y="0.0" viewBox="0 0 90 90"><rect x="6" y="22" width="70" height="6"></rect><rect x="6" y="81" width="70" height="6"></rect><path d="M11,27v55h62V27H11z M38,30h8v10h-8V30z M38,47h8v9h-8V47z M27,73h-7v-9h7V73z M27,56h-7v-9h7V56z M27,40h-7V30h7V40z   M49,81H35V65.836c0,0,6-8.028,14,0V81z M65,73h-7v-9h7V73z M65,56h-7v-9h7V56z M65,40h-7V30h7V40z"></path><path d="M82,55.5c0,1.933-1.567,3.5-3.5,3.5l0,0c-1.933,0-3.5-1.567-3.5-3.5v-21c0-1.933,1.567-3.5,3.5-3.5l0,0  c1.933,0,3.5,1.567,3.5,3.5V55.5z"></path><polygon points="41.304,1.479 17.525,18 65.537,18 "></polygon></svg></g><path fill="#0a1256" fill-rule="nonzero" d="M0 18.28L0 16.80L1.27 16.63L7.23 1.22L9.21 1.22L15.07 16.63L16.32 16.80L16.32 18.28L11.43 18.28L11.43 16.80L12.71 16.58L11.59 13.44L4.76 13.44L3.60 16.58L4.89 16.80L4.89 18.28L0 18.28ZM8.17 4.18L5.47 11.51L10.89 11.51L8.24 4.18L8.17 4.18ZM26.37 18.28L26.21 16.41Q25.62 17.43 24.67 17.98Q23.73 18.53 22.50 18.53L22.50 18.53Q20.44 18.53 19.28 17.20Q18.12 15.88 18.12 13.08L18.12 13.08L18.12 7.42L16.66 7.09L16.66 5.60L18.12 5.60L20.43 5.60L20.43 13.10Q20.43 15.13 21.02 15.89Q21.62 16.65 22.89 16.65L22.89 16.65Q24.12 16.65 24.92 16.15Q25.72 15.66 26.13 14.74L26.13 14.74L26.13 7.42L24.43 7.09L24.43 5.60L26.13 5.60L28.44 5.60L28.44 16.48L29.89 16.80L29.89 18.28L26.37 18.28ZM33.63 7.42L31.72 7.09L31.72 5.60L35.70 5.60L35.92 7.44Q36.46 6.47 37.25 5.92Q38.04 5.37 39.06 5.37L39.06 5.37Q39.33 5.37 39.62 5.41Q39.90 5.45 40.05 5.50L40.05 5.50L39.75 7.64L38.44 7.57Q37.52 7.57 36.90 8.00Q36.28 8.43 35.94 9.20L35.94 9.20L35.94 16.48L37.85 16.80L37.85 18.28L31.72 18.28L31.72 16.80L33.63 16.48L33.63 7.42ZM52.95 18.28L49.92 18.28Q49.82 17.77 49.76 17.36Q49.70 16.95 49.68 16.54L49.68 16.54Q49.01 17.39 48.01 17.96Q47.00 18.53 45.87 18.53L45.87 18.53Q43.89 18.53 42.86 17.56Q41.82 16.59 41.82 14.84L41.82 14.84Q41.82 13.03 43.28 12.05Q44.74 11.07 47.29 11.07L47.29 11.07L49.66 11.07L49.66 9.60Q49.66 8.48 48.96 7.83Q48.26 7.18 47.00 7.18L47.00 7.18Q46.14 7.18 45.47 7.41Q44.81 7.63 44.40 8.02L44.40 8.02L44.16 9.35L42.38 9.35L42.38 6.89Q43.24 6.20 44.47 5.78Q45.70 5.37 47.14 5.37L47.14 5.37Q49.30 5.37 50.64 6.47Q51.97 7.57 51.97 9.62L51.97 9.62L51.97 15.73Q51.97 15.97 51.98 16.21Q51.98 16.44 52.01 16.68L52.01 16.68L52.95 16.80L52.95 18.28ZM46.21 16.59L46.21 16.59Q47.36 16.59 48.30 16.04Q49.25 15.49 49.66 14.72L49.66 14.72L49.66 12.63L47.20 12.63Q45.79 12.63 44.96 13.29Q44.13 13.95 44.13 14.88L44.13 14.88Q44.13 15.71 44.65 16.15Q45.16 16.59 46.21 16.59ZM69.56 18.28L69.38 16.77Q68.75 17.64 67.86 18.08Q66.96 18.53 65.78 18.53L65.78 18.53Q63.46 18.53 62.15 16.85Q60.84 15.16 60.84 12.42L60.84 12.42L60.84 12.18Q60.84 9.12 62.15 7.24Q63.46 5.37 65.80 5.37L65.80 5.37Q66.93 5.37 67.79 5.78Q68.65 6.20 69.26 6.98L69.26 6.98L69.26 1.82L67.35 1.49L67.35 0L69.26 0L71.57 0L71.57 16.48L73.48 16.80L73.48 18.28L69.56 18.28ZM63.15 12.18L63.15 12.42Q63.15 14.33 63.94 15.49Q64.72 16.65 66.36 16.65L66.36 16.65Q67.39 16.65 68.10 16.18Q68.80 15.71 69.26 14.86L69.26 14.86L69.26 8.98Q68.81 8.18 68.10 7.71Q67.38 7.24 66.39 7.24L66.39 7.24Q64.73 7.24 63.94 8.61Q63.15 9.98 63.15 12.18L63.15 12.18ZM81.02 18.53L81.02 18.53Q78.38 18.53 76.81 16.76Q75.25 15 75.25 12.19L75.25 12.19L75.25 11.67Q75.25 8.96 76.86 7.17Q78.47 5.37 80.67 5.37L80.67 5.37Q83.23 5.37 84.54 6.91Q85.86 8.46 85.86 11.04L85.86 11.04L85.86 12.48L77.64 12.48L77.60 12.54Q77.64 14.37 78.53 15.54Q79.42 16.72 81.02 16.72L81.02 16.72Q82.20 16.72 83.08 16.39Q83.96 16.05 84.61 15.47L84.61 15.47L85.51 16.97Q84.83 17.63 83.71 18.08Q82.59 18.53 81.02 18.53ZM80.67 7.18L80.67 7.18Q79.51 7.18 78.69 8.16Q77.87 9.14 77.68 10.62L77.68 10.62L77.71 10.68L83.55 10.68L83.55 10.37Q83.55 9.01 82.83 8.10Q82.10 7.18 80.67 7.18ZM110.34 11.53L110.57 4.62L110.51 4.61L104.99 18.28L103.45 18.28L97.93 4.62L97.88 4.63L98.11 11.53L98.11 16.48L100.02 16.80L100.02 18.28L93.89 18.28L93.89 16.80L95.80 16.48L95.80 3.04L93.89 2.71L93.89 1.22L95.80 1.22L98.75 1.22L104.19 15.08L104.26 15.08L109.69 1.22L114.56 1.22L114.56 2.71L112.65 3.04L112.65 16.48L114.56 16.80L114.56 18.28L108.43 18.28L108.43 16.80L110.34 16.48L110.34 11.53ZM127.72 18.28L124.70 18.28Q124.59 17.77 124.54 17.36Q124.48 16.95 124.45 16.54L124.45 16.54Q123.79 17.39 122.78 17.96Q121.78 18.53 120.64 18.53L120.64 18.53Q118.66 18.53 117.63 17.56Q116.60 16.59 116.60 14.84L116.60 14.84Q116.60 13.03 118.06 12.05Q119.52 11.07 122.06 11.07L122.06 11.07L124.44 11.07L124.44 9.60Q124.44 8.48 123.74 7.83Q123.04 7.18 121.78 7.18L121.78 7.18Q120.91 7.18 120.25 7.41Q119.59 7.63 119.18 8.02L119.18 8.02L118.93 9.35L117.15 9.35L117.15 6.89Q118.02 6.20 119.25 5.78Q120.48 5.37 121.92 5.37L121.92 5.37Q124.08 5.37 125.41 6.47Q126.75 7.57 126.75 9.62L126.75 9.62L126.75 15.73Q126.75 15.97 126.76 16.21Q126.76 16.44 126.79 16.68L126.79 16.68L127.72 16.80L127.72 18.28ZM120.98 16.59L120.98 16.59Q122.13 16.59 123.08 16.04Q124.03 15.49 124.44 14.72L124.44 14.72L124.44 12.63L121.98 12.63Q120.56 12.63 119.74 13.29Q118.91 13.95 118.91 14.88L118.91 14.88Q118.91 15.71 119.43 16.15Q119.94 16.59 120.98 16.59ZM131.24 1.82L129.33 1.49L129.33 0L133.55 0L133.55 16.48L135.46 16.80L135.46 18.28L129.33 18.28L129.33 16.80L131.24 16.48L131.24 1.82ZM138.80 1.82L136.89 1.49L136.89 0L141.11 0L141.11 16.48L143.02 16.80L143.02 18.28L136.89 18.28L136.89 16.80L138.80 16.48L138.80 1.82ZM144.54 12.08L144.54 11.82Q144.54 9.01 146.06 7.19Q147.59 5.37 150.20 5.37L150.20 5.37Q152.82 5.37 154.35 7.18Q155.88 9 155.88 11.82L155.88 11.82L155.88 12.08Q155.88 14.92 154.36 16.72Q152.84 18.53 150.22 18.53L150.22 18.53Q147.59 18.53 146.06 16.72Q144.54 14.91 144.54 12.08L144.54 12.08ZM146.85 11.82L146.85 12.08Q146.85 14.10 147.70 15.41Q148.55 16.72 150.22 16.72L150.22 16.72Q151.86 16.72 152.72 15.41Q153.57 14.10 153.57 12.08L153.57 12.08L153.57 11.82Q153.57 9.83 152.72 8.51Q151.86 7.18 150.20 7.18L150.20 7.18Q148.54 7.18 147.69 8.51Q146.85 9.83 146.85 11.82L146.85 11.82ZM159.90 7.42L157.99 7.09L157.99 5.60L161.96 5.60L162.19 7.44Q162.73 6.47 163.52 5.92Q164.31 5.37 165.33 5.37L165.33 5.37Q165.60 5.37 165.88 5.41Q166.17 5.45 166.32 5.50L166.32 5.50L166.02 7.64L164.71 7.57Q163.79 7.57 163.17 8.00Q162.55 8.43 162.21 9.20L162.21 9.20L162.21 16.48L164.12 16.80L164.12 18.28L157.99 18.28L157.99 16.80L159.90 16.48L159.90 7.42ZM173.39 16.72L173.39 16.72Q174.54 16.72 175.41 16.01Q176.29 15.30 176.29 14.27L176.29 14.27L178.36 14.27L178.38 14.34Q178.44 15.98 176.92 17.26Q175.41 18.53 173.39 18.53L173.39 18.53Q170.63 18.53 169.17 16.72Q167.71 14.92 167.71 12.19L167.71 12.19L167.71 11.70Q167.71 8.99 169.17 7.18Q170.64 5.37 173.39 5.37L173.39 5.37Q174.91 5.37 176.13 5.87Q177.34 6.38 178.14 7.25L178.14 7.25L178.24 10.07L176.40 10.07L175.90 8.07Q175.49 7.68 174.84 7.43Q174.20 7.18 173.39 7.18L173.39 7.18Q171.57 7.18 170.79 8.49Q170.02 9.80 170.02 11.70L170.02 11.70L170.02 12.19Q170.02 14.13 170.79 15.43Q171.56 16.72 173.39 16.72ZM191.93 18.28L188.91 18.28Q188.80 17.77 188.74 17.36Q188.68 16.95 188.66 16.54L188.66 16.54Q187.99 17.39 186.99 17.96Q185.99 18.53 184.85 18.53L184.85 18.53Q182.87 18.53 181.84 17.56Q180.81 16.59 180.81 14.84L180.81 14.84Q180.81 13.03 182.27 12.05Q183.73 11.07 186.27 11.07L186.27 11.07L188.65 11.07L188.65 9.60Q188.65 8.48 187.95 7.83Q187.24 7.18 185.99 7.18L185.99 7.18Q185.12 7.18 184.46 7.41Q183.80 7.63 183.39 8.02L183.39 8.02L183.14 9.35L181.36 9.35L181.36 6.89Q182.23 6.20 183.46 5.78Q184.69 5.37 186.13 5.37L186.13 5.37Q188.29 5.37 189.62 6.47Q190.96 7.57 190.96 9.62L190.96 9.62L190.96 15.73Q190.96 15.97 190.96 16.21Q190.97 16.44 190.99 16.68L190.99 16.68L191.93 16.80L191.93 18.28ZM185.19 16.59L185.19 16.59Q186.34 16.59 187.29 16.04Q188.24 15.49 188.65 14.72L188.65 14.72L188.65 12.63L186.19 12.63Q184.77 12.63 183.94 13.29Q183.12 13.95 183.12 14.88L183.12 14.88Q183.12 15.71 183.63 16.15Q184.15 16.59 185.19 16.59Z" transform="translate(36, 8.86)"></path></svg>