<svg version="1.1" id="Layer_1" xmlns="http://www.w3.org/2000/svg" xmlns:xlink="http://www.w3.org/1999/xlink" x="0px" y="0px"
	 width="100%" viewBox="0 0 950 150" enable-background="new 0 0 950 150" xml:space="preserve">
<path fill="#000000" opacity="1.000000" stroke="none" 
	d="
M951.000000,19.000000 
	C951.000000,32.354229 951.000000,45.708454 950.534485,59.531433 
	C934.828308,60.000179 919.587646,60.000179 904.500122,60.000179 
	C904.500122,78.920654 904.500122,97.401337 904.500122,116.000000 
	C920.117859,116.000000 935.558960,116.000000 951.000000,116.000000 
	C951.000000,120.689255 951.000000,125.378510 950.531372,130.533966 
	C636.062073,131.000168 322.061462,131.000168 8.361326,131.000168 
	C8.361326,93.199928 8.361326,56.132984 8.361326,19.000000 
	C322.815216,19.000000 636.907593,19.000000 951.000000,19.000000 
M368.009918,106.355301 
	C368.009918,106.355301 367.986694,106.043045 368.880493,106.002831 
	C369.919952,105.227852 371.855957,104.464172 371.865906,103.676216 
	C372.047821,89.244217 371.998840,74.809303 371.998840,60.499374 
	C356.189667,60.499374 340.791687,60.499374 325.500153,60.499374 
	C325.500153,78.901955 325.500153,97.410042 325.500153,115.443069 
	C341.124390,115.443069 356.530182,115.443069 371.936005,115.443069 
	C371.950348,114.992577 371.964691,114.542076 371.979034,114.091583 
	C367.878571,114.091583 363.778107,114.091583 359.677643,114.091583 
	C359.692841,113.673622 359.708069,113.255653 359.723297,112.837692 
	C363.463074,112.837692 367.202850,112.837692 371.051941,112.837692 
	C370.640625,110.123245 372.479523,106.783882 368.009918,106.355301 
M680.010803,106.355240 
	C680.010803,106.355240 679.987061,106.042580 680.880798,106.002808 
	C681.920166,105.227036 683.855896,104.462563 683.865906,103.673813 
	C684.047791,89.238205 683.998840,74.799675 683.998840,60.497574 
	C668.173096,60.497574 652.773438,60.497574 637.500122,60.497574 
	C637.500122,78.810478 637.500122,97.208115 637.500122,115.405807 
	C652.909363,115.405807 668.419739,115.405807 683.930115,115.405807 
	C683.936829,114.971413 683.943542,114.537025 683.950256,114.102631 
	C679.338135,114.102631 674.725952,114.102631 670.123779,114.102631 
	C670.123779,111.760086 670.123779,110.127853 670.123779,108.495628 
	C670.286987,108.476646 670.450134,108.457664 670.613342,108.438683 
	C670.862305,109.935349 671.111328,111.432022 671.320801,112.690979 
	C675.425598,112.690979 679.178955,112.690979 683.032288,112.690979 
	C682.632996,110.129562 684.485718,106.784096 680.010803,106.355240 
M219.999832,53.503712 
	C219.999832,49.734356 219.999832,45.965000 219.999832,42.000389 
	C207.784348,42.000389 196.139801,41.937138 184.497757,42.079422 
	C183.021545,42.097466 181.558502,43.192150 180.316284,43.695995 
	C179.746399,43.317150 178.765778,42.104713 177.764771,42.087627 
	C168.979492,41.937649 160.190567,42.000809 151.204254,42.000809 
	C151.204254,63.476711 151.204254,84.568443 151.204254,105.814865 
	C152.716324,105.955589 154.143646,106.088417 155.570969,106.221252 
	C155.573715,106.369713 155.576477,106.518173 155.579224,106.666626 
	C154.409622,106.887146 153.240021,107.107658 152.128021,107.317314 
	C152.128021,109.303665 152.128021,110.929901 152.128021,112.692017 
	C158.481323,112.692017 164.703629,112.692017 170.865356,112.692017 
	C170.865356,110.739601 170.865356,109.095840 170.865356,107.307014 
	C169.374832,107.070915 167.992477,106.851952 166.610107,106.632996 
	C166.632614,106.523148 166.655106,106.413300 166.677612,106.303452 
	C168.393936,106.303452 170.110260,106.303452 171.692184,106.303452 
	C171.692184,109.021042 171.692184,111.425346 171.692184,114.253036 
	C164.830521,114.253036 158.268692,114.253036 151.706863,114.253036 
	C151.717163,114.609421 151.727478,114.965813 151.737778,115.322197 
	C193.128601,115.322197 234.519409,115.322197 275.910217,115.322197 
	C275.916016,114.933945 275.921783,114.545700 275.927551,114.157448 
	C270.694733,114.157448 265.461884,114.157448 260.207397,114.157448 
	C260.207397,111.664749 260.207397,109.662773 260.207397,107.660797 
	C260.409088,107.652702 260.610779,107.644600 260.812469,107.636497 
	C260.927612,109.353783 261.042755,111.071060 261.156616,112.769043 
	C265.888214,112.769043 270.330597,112.769043 274.813538,112.769043 
	C274.813538,110.757225 274.813538,108.977898 274.813538,107.225548 
	C273.562531,107.028572 272.497986,106.860947 271.433411,106.693321 
	C271.440887,106.530663 271.448334,106.368011 271.455811,106.205353 
	C272.877319,106.083885 274.298828,105.962410 275.790527,105.834946 
	C275.790527,90.867584 275.790527,76.101234 275.790527,61.199753 
	C273.840607,61.199753 272.104126,61.199753 269.914124,61.199753 
	C269.914124,75.764465 269.914124,90.137802 269.914124,104.511131 
	C269.606201,104.510689 269.298309,104.510246 268.990387,104.509804 
	C268.990387,90.107750 268.990387,75.705688 268.990387,61.193020 
	C263.418457,61.193020 258.317230,61.193020 252.633499,61.193020 
	C253.128067,63.282307 253.550095,65.065155 253.972107,66.848000 
	C253.594986,66.986015 253.217865,67.124039 252.840729,67.262054 
	C252.425873,65.334190 252.011002,63.406322 251.564255,61.330269 
	C246.882034,61.330269 242.005966,61.330269 236.840698,61.330269 
	C236.840698,73.938324 236.840698,86.218300 236.840698,98.498283 
	C236.531464,98.501907 236.222244,98.505531 235.913010,98.509155 
	C235.913010,86.021378 235.913010,73.533600 235.913010,61.156994 
	C230.636108,61.156994 225.993317,61.156994 221.003754,61.156994 
	C221.094986,63.201180 221.178543,65.073227 221.262100,66.945274 
	C220.841339,66.944176 220.420593,66.943077 219.999832,66.941978 
	C219.999832,62.791801 219.999832,58.641617 219.999832,53.503712 
M542.000122,97.446365 
	C542.000122,100.250931 542.000122,103.055496 542.000122,105.791672 
	C543.766541,105.985085 545.122742,106.133575 547.553894,106.399765 
	C545.290833,106.939980 544.121826,107.219025 543.215210,107.435448 
	C543.215210,109.472969 543.215210,111.078583 543.215210,112.785904 
	C551.189514,112.785904 558.947754,112.785904 566.812012,112.785904 
	C566.812012,110.805786 566.812012,109.044029 566.812012,107.239311 
	C565.220398,107.049316 563.807800,106.880692 562.395264,106.712067 
	C562.405884,106.548546 562.416504,106.385033 562.427124,106.221512 
	C564.167236,106.221512 565.907288,106.221512 567.807739,106.221512 
	C567.807739,108.776199 567.807739,111.194809 567.807739,114.068016 
	C559.238220,114.068016 550.849609,114.068016 542.460938,114.068016 
	C542.466003,114.287117 542.471008,114.506226 542.476074,114.725327 
	C571.146179,114.725327 599.816345,114.725327 628.486511,114.725327 
	C628.490234,114.479698 628.493958,114.234070 628.497681,113.988441 
	C619.755615,113.988441 611.013550,113.988441 602.212280,113.988441 
	C602.212280,111.097191 602.212280,108.670662 602.212280,106.263565 
	C604.111328,106.263565 605.793518,106.263565 607.475708,106.263565 
	C607.481934,106.402504 607.488098,106.541443 607.494324,106.680382 
	C605.987488,106.936371 604.480652,107.192368 603.201538,107.409676 
	C603.201538,109.433380 603.201538,111.044800 603.201538,112.797478 
	C611.493347,112.797478 619.583435,112.797478 627.822388,112.797478 
	C627.822388,110.835159 627.822388,109.075684 627.822388,107.220711 
	C626.249390,107.050735 624.839783,106.898415 623.430176,106.746094 
	C623.433716,106.576012 623.437256,106.405922 623.440735,106.235832 
	C625.174805,106.092682 626.908875,105.949532 628.679260,105.803383 
	C628.679260,86.821960 628.679260,67.948860 628.679260,49.107521 
	C626.720093,49.001312 625.086304,48.912743 623.452515,48.824173 
	C623.443604,48.656925 623.434692,48.489677 623.425781,48.322430 
	C624.920105,48.107944 626.414490,47.893459 628.060425,47.657223 
	C627.952148,45.599407 627.861267,43.871742 627.750854,41.772369 
	C620.662170,42.833385 613.619263,40.487274 607.210815,43.341270 
	C606.427185,42.998631 605.289124,42.075001 604.143372,42.065460 
	C591.651367,41.961418 579.157715,41.955273 566.666016,42.075188 
	C565.506592,42.086319 564.357117,43.144611 563.509705,43.564663 
	C557.092896,40.145176 549.939453,42.920795 542.147766,41.775009 
	C543.114136,44.837059 543.768066,46.908882 544.405029,48.927105 
	C544.321594,48.940926 543.243225,49.119617 542.000122,49.325596 
	C542.000122,65.164185 542.000122,80.811356 542.000122,97.446365 
M95.003075,120.115791 
	C95.001953,99.474968 95.037117,78.834007 94.959595,58.193470 
	C94.948288,55.184769 94.805893,52.438801 99.042107,52.607018 
	C98.953857,50.593559 98.883644,48.991486 98.808189,47.269890 
	C68.776268,47.269890 39.063957,47.269890 9.320369,47.269890 
	C9.320369,49.272118 9.320369,51.000313 9.320369,52.748154 
	C11.563582,52.954964 13.496184,53.133137 15.605545,53.327606 
	C15.605545,76.603905 15.605545,99.610748 15.605545,122.736710 
	C13.287091,122.920204 11.351542,123.073395 9.291400,123.236450 
	C9.291400,125.535568 9.291400,127.588211 9.291400,129.704224 
	C39.289150,129.704224 68.996185,129.704224 98.482605,129.704224 
	C100.443741,125.314163 97.791779,123.145706 95.003075,120.115791 
M404.000153,101.601250 
	C404.000153,106.354034 404.000153,111.106827 404.000153,115.489708 
	C422.403656,115.489708 440.164886,115.489708 457.926117,115.489708 
	C457.938049,115.083252 457.949982,114.676796 457.961884,114.270340 
	C452.031891,114.270340 446.101898,114.270340 440.251526,114.270340 
	C440.251526,111.925362 440.251526,110.299072 440.251526,108.672775 
	C440.437225,108.671867 440.622925,108.670959 440.808655,108.670044 
	C440.945862,110.063324 441.083069,111.456604 441.209900,112.744537 
	C446.604004,112.744537 451.707031,112.744537 456.758575,112.744537 
	C456.758575,110.722916 456.758575,108.960068 456.758575,107.202179 
	C454.852814,107.026070 453.186890,106.872116 451.520935,106.718163 
	C451.534241,106.459412 451.547516,106.200661 451.560822,105.941910 
	C453.622437,105.941910 455.684052,105.941910 457.763489,105.941910 
	C457.763489,82.761688 457.763489,60.026814 457.763489,37.234138 
	C455.117310,37.234138 452.714020,37.234138 449.882782,37.234138 
	C449.882782,59.804741 449.882782,82.145523 449.882782,104.486313 
	C449.586578,104.485947 449.290405,104.485580 448.994202,104.485222 
	C448.994202,82.100090 448.994202,59.714962 448.994202,37.209885 
	C443.124054,37.209885 437.707275,37.209885 432.169128,37.209885 
	C432.169128,39.191875 432.169128,40.961784 432.169128,42.725174 
	C433.426605,42.940357 434.519135,43.127319 435.611694,43.314281 
	C435.601074,43.461628 435.590454,43.608978 435.579834,43.756325 
	C434.172516,43.756325 432.765198,43.756325 431.014587,43.756325 
	C431.014587,41.615883 431.014587,39.517944 431.014587,37.348045 
	C421.810577,37.348045 412.950806,37.348045 404.000153,37.348045 
	C404.000153,58.674706 404.000153,79.653168 404.000153,101.601250 
M785.489868,60.995155 
	C782.561646,60.663498 779.633911,60.076813 776.705139,60.071934 
	C773.777710,60.067051 770.837341,60.989349 767.924011,60.888493 
	C763.078186,60.720730 758.249512,60.060246 753.500122,59.615372 
	C753.500122,78.840691 753.500122,97.246277 753.500122,115.776840 
	C769.181641,115.776840 784.917419,115.776840 800.125977,115.776840 
	C800.125977,97.136353 800.125977,78.719551 800.125977,59.629803 
	C795.774780,60.048473 791.086670,60.499557 785.489868,60.995155 
M886.347656,97.163353 
	C886.062927,98.215546 885.778259,99.267746 885.493530,100.319939 
	C885.297668,100.277084 885.101807,100.234238 884.905945,100.191383 
	C885.042786,98.812904 885.179565,97.434425 885.333801,95.880615 
	C888.652100,95.880615 891.609497,95.880615 894.661255,95.880615 
	C894.661255,83.796700 894.661255,71.932739 894.661255,60.499306 
	C879.574219,60.499306 864.828003,60.499306 850.500122,60.499306 
	C850.500122,79.114594 850.500122,97.514420 850.500122,115.655800 
	C865.437683,115.655800 880.173645,115.655800 895.376465,115.655800 
	C894.914551,109.259941 894.479919,103.240517 894.030029,97.010490 
	C891.430847,97.010490 889.280701,97.010490 886.347656,97.163353 
M478.004639,60.023140 
	C473.407928,60.023140 468.811249,60.023140 464.500153,60.023140 
	C464.500153,78.953224 464.500153,97.343094 464.500153,115.754959 
	C479.249908,115.754959 493.974152,115.754959 508.763367,115.754959 
	C508.763367,106.778358 508.763367,98.048477 508.763367,88.879349 
	C497.196198,88.879349 485.857300,88.879349 474.518402,88.879349 
	C474.519958,88.579460 474.521515,88.279564 474.523071,87.979675 
	C485.583191,87.979675 496.643311,87.979675 507.696625,87.979675 
	C508.193359,78.393173 508.665680,69.277145 509.129059,60.334431 
	C498.520477,60.334431 488.691620,60.334431 478.004639,60.023140 
M744.277100,112.999580 
	C749.594849,113.005867 745.876770,109.246452 747.246460,107.251335 
	C744.901062,107.052315 743.155151,106.904167 741.409180,106.756012 
	C741.408325,106.574394 741.407410,106.392776 741.406494,106.211166 
	C743.483215,106.082321 745.559998,105.953476 747.664795,105.822891 
	C747.664795,82.791031 747.664795,59.929550 747.664795,37.345844 
	C744.915894,37.345844 742.507751,37.345844 739.706299,37.345844 
	C739.706299,59.876431 739.706299,82.062912 739.706299,104.249397 
	C739.410400,104.247749 739.114502,104.246101 738.818604,104.244453 
	C738.818604,81.873787 738.818604,59.503124 738.818604,37.291969 
	C732.919678,37.291969 727.494751,37.291969 722.118530,37.291969 
	C722.118530,39.233795 722.118530,40.880852 722.118530,42.665550 
	C723.279480,42.919449 724.358459,43.155411 725.437378,43.391376 
	C725.416443,43.560684 725.395447,43.729996 725.374512,43.899307 
	C723.978027,43.972622 722.581482,44.045937 721.217773,44.117531 
	C721.217773,64.961533 721.217773,85.388184 721.217773,105.818962 
	C723.112366,105.975639 724.790344,106.114403 726.468323,106.253159 
	C726.465210,106.449051 726.462097,106.644936 726.459045,106.840828 
	C725.059265,106.935555 723.659485,107.030289 722.214722,107.128067 
	C722.214722,109.180786 722.214722,110.926292 722.214722,112.999802 
	C729.386719,112.999802 736.349548,112.999802 744.277100,112.999580 
M691.005859,38.503361 
	C691.713501,40.334862 692.421082,42.166363 693.112122,43.955032 
	C693.042419,43.959808 691.634216,44.056202 690.185547,44.155376 
	C690.185547,64.901840 690.185547,85.342285 690.185547,105.773254 
	C691.758667,105.959373 693.147034,106.123642 695.642029,106.418823 
	C693.349487,106.913429 692.173096,107.167213 691.180481,107.381371 
	C691.180481,109.405655 691.180481,111.019180 691.180481,112.812363 
	C699.117615,112.812363 706.874756,112.812363 714.815674,112.812363 
	C714.815674,110.870972 714.815674,109.116180 714.815674,107.301262 
	C713.348938,107.068588 712.012085,106.856522 710.675232,106.644455 
	C710.703369,106.425819 710.731506,106.207176 710.759644,105.988541 
	C712.375488,105.988541 713.991333,105.988541 715.684570,105.988541 
	C715.684570,82.865265 715.684570,59.988110 715.684570,37.324753 
	C712.954407,37.324753 710.546265,37.324753 707.734009,37.324753 
	C707.734009,59.857269 707.734009,82.067284 707.734009,104.277290 
	C707.433289,104.275757 707.132629,104.274223 706.831909,104.272690 
	C706.831909,81.895020 706.831909,59.517357 706.831909,36.726292 
	C701.253784,37.026546 696.164551,37.300484 691.005859,38.503361 
M834.999390,110.533653 
	C834.927979,109.412010 834.856567,108.290367 834.787537,107.204987 
	C832.849854,107.027046 831.195251,106.875107 829.540710,106.723175 
	C829.556458,106.569717 829.572144,106.416267 829.587891,106.262817 
	C831.646179,106.262817 833.704468,106.262817 835.732910,106.262817 
	C835.732910,108.940628 835.732910,111.346779 835.732910,114.186584 
	C826.856445,114.186584 818.238892,114.186584 809.621277,114.186584 
	C809.629028,114.358299 809.636841,114.530006 809.644592,114.701721 
	C821.365234,114.701721 833.085815,114.701721 844.999756,114.701721 
	C844.999756,97.930428 845.007935,81.456474 844.992859,64.982536 
	C844.989929,61.731812 843.763184,59.710346 840.045959,59.977627 
	C834.661438,60.364803 829.615967,61.340828 826.336914,67.692482 
	C826.091675,64.693092 825.950195,62.962784 825.805847,61.196785 
	C820.438171,61.196785 815.320251,61.196785 810.287598,61.196785 
	C809.278137,63.727116 809.538147,66.490685 809.395874,68.680443 
	C808.591797,81.052040 809.007202,93.502907 809.007202,105.999359 
	C810.264587,105.999359 810.932800,105.959045 811.594238,106.009132 
	C812.504944,106.078117 813.410522,106.215446 814.318359,106.323494 
	C814.309021,106.488586 814.299683,106.653671 814.290344,106.818764 
	C812.899292,106.953178 811.508179,107.087585 809.943481,107.238770 
	C810.047729,109.362823 810.132751,111.095528 810.226135,112.998825 
	C817.927795,112.998825 825.242920,113.047379 832.555359,112.931152 
	C833.376038,112.918106 834.181763,111.971947 834.999390,110.533653 
M304.981720,106.001106 
	C306.241119,106.001106 307.500519,106.001106 308.743561,106.001106 
	C308.743561,108.916237 308.743561,111.325119 308.743561,114.164841 
	C300.191620,114.164841 291.887238,114.164841 283.582886,114.164841 
	C283.590240,114.352432 283.597626,114.540016 283.605011,114.727608 
	C294.987701,114.727608 306.370392,114.727608 318.085907,114.727608 
	C317.489014,96.437279 319.125488,78.382431 316.761230,60.849899 
	C305.811188,60.849899 294.944366,60.849899 283.138794,60.849899 
	C284.941040,64.315742 283.357391,66.887444 283.246338,69.365959 
	C282.703918,81.470398 283.000732,93.612450 283.000732,105.747643 
	C284.753387,105.947823 286.162628,106.108772 288.802338,106.410263 
	C286.391144,106.895020 285.206726,107.133148 284.157867,107.344017 
	C284.157867,109.366127 284.157867,110.984978 284.157867,112.667862 
	C292.190430,112.667862 300.061188,112.667862 307.853027,112.667862 
	C307.853027,110.695198 307.853027,109.055588 307.853027,107.217690 
	C306.472137,107.094536 305.202698,106.994469 303.939331,106.843552 
	C303.838928,106.831558 303.734558,106.469345 303.726654,106.266220 
	C303.723755,106.191116 303.993683,106.105408 304.981720,106.001106 
M55.718487,20.881083 
	C53.963295,21.608601 52.022251,22.062897 50.483963,23.109280 
	C42.297630,28.677818 34.212193,34.394680 25.125727,40.734249 
	C45.540310,40.734249 64.540054,40.734249 84.756332,40.734249 
	C74.616577,33.845982 65.428246,27.604052 55.718487,20.881083 
M100.232773,59.176769 
	C99.822319,60.354382 99.069595,61.528061 99.056030,62.710224 
	C98.955177,71.496490 98.838020,80.290207 99.149139,89.066597 
	C99.206024,90.671333 101.194260,92.207619 102.290970,93.775497 
	C103.859207,92.166519 106.692276,90.625427 106.782883,88.937141 
	C107.244286,80.340279 107.125099,71.702507 106.935242,63.085079 
	C106.855042,59.444668 104.545128,58.045551 100.232773,59.176769 
M721.454468,114.463028 
	C730.143799,114.463028 738.833130,114.463028 747.522461,114.463028 
	C747.525024,114.317207 747.527588,114.171394 747.530151,114.025574 
	C739.085754,114.025574 730.641357,114.025574 721.454468,114.463028 
M691.182556,114.026085 
	C690.973999,114.201691 690.765442,114.377296 690.556885,114.552917 
	C690.692810,114.648926 690.828552,114.828728 690.964600,114.828957 
	C699.116943,114.842331 707.269348,114.840935 715.421692,114.840935 
	C715.419922,114.561165 715.418213,114.281395 715.416443,114.001625 
	C707.631226,114.001625 699.845947,114.001625 691.182556,114.026085 
z"/>
<path fill="#FFFFFF" opacity="1.000000" stroke="none" 
	d="
M951.000000,18.530293 
	C636.907593,19.000000 322.815216,19.000000 8.361326,19.000000 
	C8.361326,56.132984 8.361326,93.199928 8.361326,131.000168 
	C322.061462,131.000168 636.062073,131.000168 950.531372,131.000092 
	C951.000000,137.665268 951.000000,144.330536 951.000000,150.996857 
	C634.401184,150.997894 317.802429,150.997894 1.101815,150.997894 
	C1.101815,101.078560 1.101815,51.156837 1.101815,1.117559 
	C317.666626,1.117559 634.333313,1.117559 951.000000,1.117559 
	C951.000000,6.730424 951.000000,12.395504 951.000000,18.530293 
z"/>
<path fill="#FFFFFF" opacity="1.000000" stroke="none" 
	d="
M951.000000,115.531342 
	C935.558960,116.000000 920.117859,116.000000 904.500122,116.000000 
	C904.500122,97.401337 904.500122,78.920654 904.500122,60.000179 
	C919.587646,60.000179 934.828308,60.000179 950.534485,60.000092 
	C951.000000,78.354225 951.000000,96.708458 951.000000,115.531342 
M946.034180,104.541336 
	C946.308289,104.599632 946.581299,104.669540 946.858459,104.695374 
	C946.882080,104.697578 946.966553,104.405891 946.966492,104.250763 
	C946.962280,93.148529 946.961670,82.046242 946.896851,70.944359 
	C946.894958,70.622223 946.209656,70.304077 945.996887,70.118401 
	C945.996887,81.430550 945.996887,92.565353 946.034180,104.541336 
z"/>
<path fill="#FFFFFF" opacity="1.000000" stroke="none" 
	d="
M219.999832,53.997574 
	C219.999832,58.641617 219.999832,62.791801 219.999832,66.941978 
	C220.420593,66.943077 220.841339,66.944176 221.262100,66.945274 
	C221.178543,65.073227 221.094986,63.201180 221.003754,61.156994 
	C225.993317,61.156994 230.636108,61.156994 235.913010,61.156994 
	C235.913010,73.533600 235.913010,86.021378 235.913010,98.509155 
	C236.222244,98.505531 236.531464,98.501907 236.840698,98.498283 
	C236.840698,86.218300 236.840698,73.938324 236.840698,61.330269 
	C242.005966,61.330269 246.882034,61.330269 251.564255,61.330269 
	C252.011002,63.406322 252.425873,65.334190 252.840729,67.262054 
	C253.217865,67.124039 253.594986,66.986015 253.972107,66.848000 
	C253.550095,65.065155 253.128067,63.282307 252.633499,61.193020 
	C258.317230,61.193020 263.418457,61.193020 268.990387,61.193020 
	C268.990387,75.705688 268.990387,90.107750 268.990387,104.509804 
	C269.298309,104.510246 269.606201,104.510689 269.914124,104.511131 
	C269.914124,90.137802 269.914124,75.764465 269.914124,61.199753 
	C272.104126,61.199753 273.840607,61.199753 275.790527,61.199753 
	C275.790527,76.101234 275.790527,90.867584 275.790527,105.834946 
	C274.298828,105.962410 272.877319,106.083885 271.455811,106.205353 
	C271.448334,106.368011 271.440887,106.530663 271.433411,106.693321 
	C272.497986,106.860947 273.562531,107.028572 274.813538,107.225548 
	C274.813538,108.977898 274.813538,110.757225 274.813538,112.769043 
	C270.330597,112.769043 265.888214,112.769043 261.156616,112.769043 
	C261.042755,111.071060 260.927612,109.353783 260.812469,107.636497 
	C260.610779,107.644600 260.409088,107.652702 260.207397,107.660797 
	C260.207397,109.662773 260.207397,111.664749 260.207397,114.157448 
	C265.461884,114.157448 270.694733,114.157448 275.927551,114.157448 
	C275.921783,114.545700 275.916016,114.933945 275.910217,115.322197 
	C234.519409,115.322197 193.128601,115.322197 151.737778,115.322197 
	C151.727478,114.965813 151.717163,114.609421 151.706863,114.253036 
	C158.268692,114.253036 164.830521,114.253036 171.692184,114.253036 
	C171.692184,111.425346 171.692184,109.021042 171.692184,106.303452 
	C170.110260,106.303452 168.393936,106.303452 166.677612,106.303452 
	C166.655106,106.413300 166.632614,106.523148 166.610107,106.632996 
	C167.992477,106.851952 169.374832,107.070915 170.865356,107.307014 
	C170.865356,109.095840 170.865356,110.739601 170.865356,112.692017 
	C164.703629,112.692017 158.481323,112.692017 152.128021,112.692017 
	C152.128021,110.929901 152.128021,109.303665 152.128021,107.317314 
	C153.240021,107.107658 154.409622,106.887146 155.579224,106.666626 
	C155.576477,106.518173 155.573715,106.369713 155.570969,106.221252 
	C154.143646,106.088417 152.716324,105.955589 151.204254,105.814865 
	C151.204254,84.568443 151.204254,63.476711 151.204254,42.000809 
	C160.190567,42.000809 168.979492,41.937649 177.764771,42.087627 
	C178.765778,42.104713 179.746399,43.317150 180.316284,43.695995 
	C181.558502,43.192150 183.021545,42.097466 184.497757,42.079422 
	C196.139801,41.937138 207.784348,42.000389 219.999832,42.000389 
	C219.999832,45.965000 219.999832,49.734356 219.999832,53.997574 
M216.331619,113.999985 
	C217.550674,113.881386 218.769730,113.762787 219.801208,113.662430 
	C219.801208,110.894958 219.801208,108.611404 219.801208,106.250214 
	C217.545929,106.250214 215.492950,106.250214 213.439957,106.250214 
	C213.432938,106.422585 213.425919,106.594948 213.418900,106.767319 
	C215.161118,106.908783 216.903336,107.050247 218.814682,107.205444 
	C218.814682,109.094559 218.814682,110.841599 218.814682,112.696213 
	C212.138306,112.696213 205.607315,112.696213 199.120026,112.696213 
	C199.120026,110.749199 199.120026,109.106628 199.120026,107.329308 
	C200.281677,107.079399 201.358459,106.847748 202.435242,106.616104 
	C202.409012,106.497314 202.382767,106.378532 202.356537,106.259743 
	C200.975983,106.259743 199.595428,106.259743 198.260193,106.259743 
	C198.260193,108.932922 198.260193,111.337532 198.260193,114.000000 
	C204.133484,114.000000 209.750534,114.000000 216.331619,113.999985 
M260.012054,96.849968 
	C260.012054,87.421722 260.012054,77.993477 260.012054,68.565224 
	C259.733246,68.569717 259.454437,68.574203 259.175629,68.578697 
	C259.175629,79.199211 259.175629,89.819725 259.175629,100.440239 
	C259.355957,100.452171 259.536316,100.464111 259.716644,100.476044 
	C259.815125,99.542908 259.913574,98.609772 260.012054,96.849968 
M227.000000,75.615509 
	C227.000000,73.261292 227.000000,70.907074 227.000000,68.552856 
	C226.765991,68.560577 226.531982,68.568298 226.297974,68.576027 
	C226.297974,78.190430 226.297974,87.804832 226.297974,97.419243 
	C226.531982,97.420555 226.765991,97.421867 227.000000,97.423180 
	C227.000000,90.477432 227.000000,83.531677 227.000000,75.615509 
M183.507355,92.000000 
	C179.210648,92.000000 174.913940,92.000000 170.617233,92.000000 
	C170.627472,92.227257 170.637711,92.454521 170.647964,92.681778 
	C179.885330,92.681778 189.122711,92.681778 198.360077,92.681778 
	C198.361099,92.454521 198.362106,92.227257 198.363113,92.000000 
	C193.742081,92.000000 189.121033,92.000000 183.507355,92.000000 
z"/>
<path fill="#FFFFFF" opacity="1.000000" stroke="none" 
	d="
M542.000122,96.952438 
	C542.000122,80.811356 542.000122,65.164185 542.000122,49.325596 
	C543.243225,49.119617 544.321594,48.940926 544.405029,48.927105 
	C543.768066,46.908882 543.114136,44.837059 542.147766,41.775009 
	C549.939453,42.920795 557.092896,40.145176 563.509705,43.564663 
	C564.357117,43.144611 565.506592,42.086319 566.666016,42.075188 
	C579.157715,41.955273 591.651367,41.961418 604.143372,42.065460 
	C605.289124,42.075001 606.427185,42.998631 607.210815,43.341270 
	C613.619263,40.487274 620.662170,42.833385 627.750854,41.772369 
	C627.861267,43.871742 627.952148,45.599407 628.060425,47.657223 
	C626.414490,47.893459 624.920105,48.107944 623.425781,48.322430 
	C623.434692,48.489677 623.443604,48.656925 623.452515,48.824173 
	C625.086304,48.912743 626.720093,49.001312 628.679260,49.107521 
	C628.679260,67.948860 628.679260,86.821960 628.679260,105.803383 
	C626.908875,105.949532 625.174805,106.092682 623.440735,106.235832 
	C623.437256,106.405922 623.433716,106.576012 623.430176,106.746094 
	C624.839783,106.898415 626.249390,107.050735 627.822388,107.220711 
	C627.822388,109.075684 627.822388,110.835159 627.822388,112.797478 
	C619.583435,112.797478 611.493347,112.797478 603.201538,112.797478 
	C603.201538,111.044800 603.201538,109.433380 603.201538,107.409676 
	C604.480652,107.192368 605.987488,106.936371 607.494324,106.680382 
	C607.488098,106.541443 607.481934,106.402504 607.475708,106.263565 
	C605.793518,106.263565 604.111328,106.263565 602.212280,106.263565 
	C602.212280,108.670662 602.212280,111.097191 602.212280,113.988441 
	C611.013550,113.988441 619.755615,113.988441 628.497681,113.988441 
	C628.493958,114.234070 628.490234,114.479698 628.486511,114.725327 
	C599.816345,114.725327 571.146179,114.725327 542.476074,114.725327 
	C542.471008,114.506226 542.466003,114.287117 542.460938,114.068016 
	C550.849609,114.068016 559.238220,114.068016 567.807739,114.068016 
	C567.807739,111.194809 567.807739,108.776199 567.807739,106.221512 
	C565.907288,106.221512 564.167236,106.221512 562.427124,106.221512 
	C562.416504,106.385033 562.405884,106.548546 562.395264,106.712067 
	C563.807800,106.880692 565.220398,107.049316 566.812012,107.239311 
	C566.812012,109.044029 566.812012,110.805786 566.812012,112.785904 
	C558.947754,112.785904 551.189514,112.785904 543.215210,112.785904 
	C543.215210,111.078583 543.215210,109.472969 543.215210,107.435448 
	C544.121826,107.219025 545.290833,106.939980 547.553894,106.399765 
	C545.122742,106.133575 543.766541,105.985085 542.000122,105.791672 
	C542.000122,103.055496 542.000122,100.250931 542.000122,96.952438 
M550.000000,90.492279 
	C550.000000,95.118095 550.000000,99.743912 550.000000,104.369720 
	C550.225769,104.359276 550.451477,104.348831 550.677246,104.338387 
	C550.677246,86.444443 550.677246,68.550491 550.677246,50.656548 
	C550.451477,50.656643 550.225769,50.656734 550.000000,50.656830 
	C550.000000,63.602825 550.000000,76.548820 550.000000,90.492279 
M621.000000,92.480377 
	C621.000000,78.531967 621.000000,64.583549 621.000000,50.635136 
	C620.772949,50.638966 620.545959,50.642796 620.318909,50.646626 
	C620.318909,68.549416 620.318909,86.452209 620.318909,104.355003 
	C620.545959,104.357780 620.772949,104.360558 621.000000,104.363342 
	C621.000000,100.732376 621.000000,97.101418 621.000000,92.480377 
M560.037720,61.174129 
	C559.877991,61.000759 559.734070,60.804752 559.545349,60.672791 
	C559.506897,60.645851 559.194153,60.852638 559.187073,60.963226 
	C559.102112,62.281845 559.000305,63.602604 558.999023,64.922897 
	C558.986084,78.142342 558.991150,91.361809 558.991150,104.581261 
	C559.331116,104.581062 559.671021,104.580856 560.010986,104.580658 
	C560.010986,90.362984 560.010986,76.145309 560.037720,61.174129 
z"/>
<path fill="#D28F00" opacity="1.000000" stroke="none" 
	d="
M95.015259,120.571144 
	C97.791779,123.145706 100.443741,125.314163 98.482605,129.704224 
	C68.996185,129.704224 39.289150,129.704224 9.291400,129.704224 
	C9.291400,127.588211 9.291400,125.535568 9.291400,123.236450 
	C11.351542,123.073395 13.287091,122.920204 15.605545,122.736710 
	C15.605545,99.610748 15.605545,76.603905 15.605545,53.327606 
	C13.496184,53.133137 11.563582,52.954964 9.320369,52.748154 
	C9.320369,51.000313 9.320369,49.272118 9.320369,47.269890 
	C39.063957,47.269890 68.776268,47.269890 98.808189,47.269890 
	C98.883644,48.991486 98.953857,50.593559 99.042107,52.607018 
	C94.805893,52.438801 94.948288,55.184769 94.959595,58.193470 
	C95.037117,78.834007 95.001953,99.474968 95.015259,120.571144 
M45.994877,113.490677 
	C45.994877,116.554733 45.994877,119.618782 45.994877,122.647430 
	C52.755199,122.647430 58.636024,122.647430 64.996628,122.647430 
	C64.996628,116.368668 65.061211,110.436279 64.934937,104.507942 
	C64.913139,103.484627 64.341347,102.180870 63.579319,101.515404 
	C60.032108,98.417702 55.930309,96.823463 51.273308,98.585747 
	C46.997772,100.203690 45.373817,103.527023 45.964783,108.049622 
	C46.156479,109.516655 45.994877,111.029846 45.994877,113.490677 
M26.000227,58.780514 
	C26.000227,62.356983 26.000227,65.933449 26.000227,69.561234 
	C30.027683,69.561234 33.356056,69.561234 36.649490,69.561234 
	C36.649490,64.899284 36.649490,60.690784 36.649490,55.160267 
	C32.705410,56.161087 29.369898,57.007481 26.000227,58.780514 
M60.080666,69.721382 
	C60.473457,65.292473 60.866245,60.863560 61.268818,56.324341 
	C56.972412,56.324341 53.754601,56.324341 50.411678,56.324341 
	C50.411678,60.990597 50.411678,65.316917 50.411678,69.961502 
	C53.610256,69.961502 56.399181,69.961502 60.080666,69.721382 
M26.035225,79.835068 
	C26.035225,83.403763 26.035225,86.972458 26.035225,90.544456 
	C30.060345,90.544456 33.391327,90.544456 36.630722,90.544456 
	C36.630722,86.198830 36.630722,82.320114 36.630722,77.632462 
	C32.873516,78.107216 29.569134,78.524757 26.035225,79.835068 
M60.964954,79.843704 
	C57.509205,79.036308 54.053459,78.228905 50.334927,77.360115 
	C50.334927,82.730537 50.334927,86.608513 50.334927,90.567825 
	C54.018665,90.567825 57.346767,90.567825 60.999962,90.567825 
	C60.999962,87.012764 60.999962,83.892357 60.964954,79.843704 
M29.655491,113.004662 
	C31.913424,113.004662 34.171356,113.004662 36.603607,113.004662 
	C36.603607,108.379601 36.603607,104.385681 36.603607,100.318893 
	C32.980816,100.318893 29.763744,100.318893 26.006439,100.318893 
	C26.006439,103.886551 25.804602,107.167206 26.131592,110.394279 
	C26.227505,111.340858 27.824787,112.135307 29.655491,113.004662 
M75.995094,59.720516 
	C75.995094,62.971149 75.995094,66.221779 75.995094,69.580528 
	C79.649323,69.580528 82.647903,69.580528 85.671783,69.580528 
	C85.671783,64.942444 85.671783,60.733612 85.671783,55.876640 
	C82.239990,57.343884 77.924484,53.111126 75.995094,59.720516 
M86.000488,102.770393 
	C83.775772,96.949471 79.583565,101.296097 76.354263,100.045769 
	C76.354263,104.781845 76.354263,108.657585 76.354263,112.545151 
	C79.723900,112.545151 82.722488,112.545151 86.005280,112.545151 
	C86.005280,109.292152 86.005280,106.497841 86.000488,102.770393 
M76.267166,78.935677 
	C76.267166,82.817192 76.267166,86.698708 76.267166,90.699326 
	C79.646820,90.699326 82.532349,90.699326 85.611511,90.699326 
	C85.611511,86.391792 85.611511,82.395607 85.611511,78.280640 
	C82.449547,78.280640 79.680275,78.280640 76.267166,78.935677 
z"/>
<path fill="#FFFFFF" opacity="1.000000" stroke="none" 
	d="
M404.000153,101.116440 
	C404.000153,79.653168 404.000153,58.674706 404.000153,37.348045 
	C412.950806,37.348045 421.810577,37.348045 431.014587,37.348045 
	C431.014587,39.517944 431.014587,41.615883 431.014587,43.756325 
	C432.765198,43.756325 434.172516,43.756325 435.579834,43.756325 
	C435.590454,43.608978 435.601074,43.461628 435.611694,43.314281 
	C434.519135,43.127319 433.426605,42.940357 432.169128,42.725174 
	C432.169128,40.961784 432.169128,39.191875 432.169128,37.209885 
	C437.707275,37.209885 443.124054,37.209885 448.994202,37.209885 
	C448.994202,59.714962 448.994202,82.100090 448.994202,104.485222 
	C449.290405,104.485580 449.586578,104.485947 449.882782,104.486313 
	C449.882782,82.145523 449.882782,59.804741 449.882782,37.234138 
	C452.714020,37.234138 455.117310,37.234138 457.763489,37.234138 
	C457.763489,60.026814 457.763489,82.761688 457.763489,105.941910 
	C455.684052,105.941910 453.622437,105.941910 451.560822,105.941910 
	C451.547516,106.200661 451.534241,106.459412 451.520935,106.718163 
	C453.186890,106.872116 454.852814,107.026070 456.758575,107.202179 
	C456.758575,108.960068 456.758575,110.722916 456.758575,112.744537 
	C451.707031,112.744537 446.604004,112.744537 441.209900,112.744537 
	C441.083069,111.456604 440.945862,110.063324 440.808655,108.670044 
	C440.622925,108.670959 440.437225,108.671867 440.251526,108.672775 
	C440.251526,110.299072 440.251526,111.925362 440.251526,114.270340 
	C446.101898,114.270340 452.031891,114.270340 457.961884,114.270340 
	C457.949982,114.676796 457.938049,115.083252 457.926117,115.489708 
	C440.164886,115.489708 422.403656,115.489708 404.000153,115.489708 
	C404.000153,111.106827 404.000153,106.354034 404.000153,101.116440 
M438.985413,76.934845 
	C438.985413,84.728287 438.985413,92.521729 438.985413,100.315170 
	C439.215576,100.310120 439.445770,100.305069 439.675934,100.300018 
	C439.675934,91.743240 439.675934,83.186462 439.675934,74.629684 
	C439.533386,74.626839 439.390869,74.623993 439.248322,74.621140 
	C439.161163,75.094437 439.074036,75.567741 438.985413,76.934845 
z"/>
<path fill="#FFFFFF" opacity="1.000000" stroke="none" 
	d="
M785.944214,60.972897 
	C791.086670,60.499557 795.774780,60.048473 800.125977,59.629803 
	C800.125977,78.719551 800.125977,97.136353 800.125977,115.776840 
	C784.917419,115.776840 769.181641,115.776840 753.500122,115.776840 
	C753.500122,97.246277 753.500122,78.840691 753.500122,59.615372 
	C758.249512,60.060246 763.078186,60.720730 767.924011,60.888493 
	C770.837341,60.989349 773.777710,60.067051 776.705139,60.071934 
	C779.633911,60.076813 782.561646,60.663498 785.944214,60.972897 
z"/>
<path fill="#FFFFFF" opacity="1.000000" stroke="none" 
	d="
M680.007324,106.668793 
	C684.485718,106.784096 682.632996,110.129562 683.032288,112.690979 
	C679.178955,112.690979 675.425598,112.690979 671.320801,112.690979 
	C671.111328,111.432022 670.862305,109.935349 670.613342,108.438683 
	C670.450134,108.457664 670.286987,108.476646 670.123779,108.495628 
	C670.123779,110.127853 670.123779,111.760086 670.123779,114.102631 
	C674.725952,114.102631 679.338135,114.102631 683.950256,114.102631 
	C683.943542,114.537025 683.936829,114.971413 683.930115,115.405807 
	C668.419739,115.405807 652.909363,115.405807 637.500122,115.405807 
	C637.500122,97.208115 637.500122,78.810478 637.500122,60.497574 
	C652.773438,60.497574 668.173096,60.497574 683.998840,60.497574 
	C683.998840,74.799675 684.047791,89.238205 683.865906,103.673813 
	C683.855896,104.462563 681.920166,105.227036 680.442688,105.551315 
	C680.004578,94.441277 680.004578,83.782730 680.004578,73.124176 
	C678.994202,82.665306 678.945557,92.156219 679.039795,101.645729 
	C679.056458,103.323112 679.669617,104.994591 680.007324,106.668793 
z"/>
<path fill="#FFFFFF" opacity="1.000000" stroke="none" 
	d="
M368.007141,106.668411 
	C372.479523,106.783882 370.640625,110.123245 371.051941,112.837692 
	C367.202850,112.837692 363.463074,112.837692 359.723297,112.837692 
	C359.708069,113.255653 359.692841,113.673622 359.677643,114.091583 
	C363.778107,114.091583 367.878571,114.091583 371.979034,114.091583 
	C371.964691,114.542076 371.950348,114.992577 371.936005,115.443069 
	C356.530182,115.443069 341.124390,115.443069 325.500153,115.443069 
	C325.500153,97.410042 325.500153,78.901955 325.500153,60.499374 
	C340.791687,60.499374 356.189667,60.499374 371.998840,60.499374 
	C371.998840,74.809303 372.047821,89.244217 371.865906,103.676216 
	C371.855957,104.464172 369.919952,105.227852 368.442383,105.551537 
	C368.004242,93.775894 368.004242,82.451538 368.004242,71.127190 
	C366.994476,81.331482 366.948730,91.488640 367.039886,101.644562 
	C367.054932,103.321938 367.669586,104.993935 368.007141,106.668411 
M332.253448,74.976158 
	C330.854889,74.892067 329.456329,74.807976 327.847778,74.711258 
	C327.847778,71.246056 327.847778,68.270660 327.847778,65.295258 
	C327.660614,65.303497 327.473480,65.311737 327.286316,65.319977 
	C327.286316,68.838036 327.286316,72.356102 327.286316,75.784409 
	C330.354858,75.784409 333.104889,75.784409 335.806335,75.784409 
	C335.806335,73.893433 335.806335,72.245796 335.806335,71.129814 
	C335.013458,72.267990 334.070587,73.621506 332.253448,74.976158 
z"/>
<path fill="#FFFFFF" opacity="1.000000" stroke="none" 
	d="
M886.739075,97.086922 
	C889.280701,97.010490 891.430847,97.010490 894.030029,97.010490 
	C894.479919,103.240517 894.914551,109.259941 895.376465,115.655800 
	C880.173645,115.655800 865.437683,115.655800 850.500122,115.655800 
	C850.500122,97.514420 850.500122,79.114594 850.500122,60.499306 
	C864.828003,60.499306 879.574219,60.499306 894.661255,60.499306 
	C894.661255,71.932739 894.661255,83.796700 894.661255,95.880615 
	C891.609497,95.880615 888.652100,95.880615 885.333801,95.880615 
	C885.179565,97.434425 885.042786,98.812904 884.905945,100.191383 
	C885.101807,100.234238 885.297668,100.277084 885.493530,100.319939 
	C885.778259,99.267746 886.062927,98.215546 886.739075,97.086922 
z"/>
<path fill="#FFFFFF" opacity="1.000000" stroke="none" 
	d="
M478.433716,60.178787 
	C488.691620,60.334431 498.520477,60.334431 509.129059,60.334431 
	C508.665680,69.277145 508.193359,78.393173 507.696625,87.979675 
	C496.643311,87.979675 485.583191,87.979675 474.523071,87.979675 
	C474.521515,88.279564 474.519958,88.579460 474.518402,88.879349 
	C485.857300,88.879349 497.196198,88.879349 508.763367,88.879349 
	C508.763367,98.048477 508.763367,106.778358 508.763367,115.754959 
	C493.974152,115.754959 479.249908,115.754959 464.500153,115.754959 
	C464.500153,97.343094 464.500153,78.953224 464.500153,60.023140 
	C468.811249,60.023140 473.407928,60.023140 478.433716,60.178787 
M483.584259,80.991776 
	C480.639496,80.991776 477.694733,80.991776 474.749969,80.991776 
	C474.753296,81.224777 474.756622,81.457779 474.759949,81.690781 
	C482.636871,81.690781 490.513794,81.690781 498.390717,81.690781 
	C498.393158,81.457779 498.395599,81.224777 498.398071,80.991776 
	C493.784027,80.991776 489.170013,80.991776 483.584259,80.991776 
z"/>
<path fill="#FFFFFF" opacity="1.000000" stroke="none" 
	d="
M743.794739,112.999695 
	C736.349548,112.999802 729.386719,112.999802 722.214722,112.999802 
	C722.214722,110.926292 722.214722,109.180786 722.214722,107.128067 
	C723.659485,107.030289 725.059265,106.935555 726.459045,106.840828 
	C726.462097,106.644936 726.465210,106.449051 726.468323,106.253159 
	C724.790344,106.114403 723.112366,105.975639 721.217773,105.818962 
	C721.217773,85.388184 721.217773,64.961533 721.217773,44.117531 
	C722.581482,44.045937 723.978027,43.972622 725.374512,43.899307 
	C725.395447,43.729996 725.416443,43.560684 725.437378,43.391376 
	C724.358459,43.155411 723.279480,42.919449 722.118530,42.665550 
	C722.118530,40.880852 722.118530,39.233795 722.118530,37.291969 
	C727.494751,37.291969 732.919678,37.291969 738.818604,37.291969 
	C738.818604,59.503124 738.818604,81.873787 738.818604,104.244453 
	C739.114502,104.246101 739.410400,104.247749 739.706299,104.249397 
	C739.706299,82.062912 739.706299,59.876431 739.706299,37.345844 
	C742.507751,37.345844 744.915894,37.345844 747.664795,37.345844 
	C747.664795,59.929550 747.664795,82.791031 747.664795,105.822891 
	C745.559998,105.953476 743.483215,106.082321 741.406494,106.211166 
	C741.407410,106.392776 741.408325,106.574394 741.409180,106.756012 
	C743.155151,106.904167 744.901062,107.052315 747.246460,107.251335 
	C745.876770,109.246452 749.594849,113.005867 743.794739,112.999695 
M730.000000,74.500000 
	C730.000000,64.877991 730.000000,55.255981 730.000000,45.633968 
	C729.772827,45.639095 729.545654,45.644222 729.318481,45.649345 
	C729.318481,65.218224 729.318481,84.787102 729.318481,104.355980 
	C729.545654,104.356117 729.772827,104.356262 730.000000,104.356400 
	C730.000000,94.737602 730.000000,85.118797 730.000000,74.500000 
z"/>
<path fill="#FFFFFF" opacity="1.000000" stroke="none" 
	d="
M691.040649,38.038891 
	C696.164551,37.300484 701.253784,37.026546 706.831909,36.726292 
	C706.831909,59.517357 706.831909,81.895020 706.831909,104.272690 
	C707.132629,104.274223 707.433289,104.275757 707.734009,104.277290 
	C707.734009,82.067284 707.734009,59.857269 707.734009,37.324753 
	C710.546265,37.324753 712.954407,37.324753 715.684570,37.324753 
	C715.684570,59.988110 715.684570,82.865265 715.684570,105.988541 
	C713.991333,105.988541 712.375488,105.988541 710.759644,105.988541 
	C710.731506,106.207176 710.703369,106.425819 710.675232,106.644455 
	C712.012085,106.856522 713.348938,107.068588 714.815674,107.301262 
	C714.815674,109.116180 714.815674,110.870972 714.815674,112.812363 
	C706.874756,112.812363 699.117615,112.812363 691.180481,112.812363 
	C691.180481,111.019180 691.180481,109.405655 691.180481,107.381371 
	C692.173096,107.167213 693.349487,106.913429 695.642029,106.418823 
	C693.147034,106.123642 691.758667,105.959373 690.185547,105.773254 
	C690.185547,85.342285 690.185547,64.901840 690.185547,44.155376 
	C691.634216,44.056202 693.042419,43.959808 693.112122,43.955032 
	C692.421082,42.166363 691.713501,40.334862 691.040649,38.038891 
M698.000000,83.499832 
	C698.000000,90.453705 698.000000,97.407578 698.000000,104.361450 
	C698.226013,104.354324 698.451965,104.347191 698.677979,104.340057 
	C698.677979,84.778175 698.677979,65.216301 698.677979,45.654419 
	C698.451965,45.654335 698.226013,45.654255 698.000000,45.654171 
	C698.000000,57.936089 698.000000,70.218002 698.000000,83.499832 
z"/>
<path fill="#FFFFFF" opacity="1.000000" stroke="none" 
	d="
M834.996948,110.996078 
	C834.181763,111.971947 833.376038,112.918106 832.555359,112.931152 
	C825.242920,113.047379 817.927795,112.998825 810.226135,112.998825 
	C810.132751,111.095528 810.047729,109.362823 809.943481,107.238770 
	C811.508179,107.087585 812.899292,106.953178 814.290344,106.818764 
	C814.299683,106.653671 814.309021,106.488586 814.318359,106.323494 
	C813.410522,106.215446 812.504944,106.078117 811.594238,106.009132 
	C810.932800,105.959045 810.264587,105.999359 809.007202,105.999359 
	C809.007202,93.502907 808.591797,81.052040 809.395874,68.680443 
	C809.538147,66.490685 809.278137,63.727116 810.287598,61.196785 
	C815.320251,61.196785 820.438171,61.196785 825.805847,61.196785 
	C825.950195,62.962784 826.091675,64.693092 826.336914,67.692482 
	C829.615967,61.340828 834.661438,60.364803 840.045959,59.977627 
	C843.763184,59.710346 844.989929,61.731812 844.992859,64.982536 
	C845.007935,81.456474 844.999756,97.930428 844.999756,114.701721 
	C833.085815,114.701721 821.365234,114.701721 809.644592,114.701721 
	C809.636841,114.530006 809.629028,114.358299 809.621277,114.186584 
	C818.238892,114.186584 826.856445,114.186584 835.732910,114.186584 
	C835.732910,111.346779 835.732910,108.940628 835.732910,106.262817 
	C833.704468,106.262817 831.646179,106.262817 829.587891,106.262817 
	C829.572144,106.416267 829.556458,106.569717 829.540710,106.723175 
	C831.195251,106.875107 832.849854,107.027046 834.787537,107.204987 
	C834.856567,108.290367 834.927979,109.412010 834.996948,110.996078 
M817.970093,103.852707 
	C817.970093,92.070671 817.970093,80.288635 817.970093,68.506599 
	C817.803406,68.507988 817.636780,68.509377 817.470093,68.510773 
	C817.470093,80.524918 817.470093,92.539062 817.970093,103.852707 
M828.012390,87.515968 
	C828.012390,82.913605 828.012390,78.311249 828.012390,73.708885 
	C827.780823,73.717453 827.549316,73.726013 827.317749,73.734573 
	C827.317749,83.946365 827.317749,94.158150 827.317749,104.369942 
	C827.549316,104.371300 827.780823,104.372658 828.012390,104.374016 
	C828.012390,99.085342 828.012390,93.796677 828.012390,87.515968 
z"/>
<path fill="#FFFFFF" opacity="1.000000" stroke="none" 
	d="
M304.560455,106.012817 
	C303.993683,106.105408 303.723755,106.191116 303.726654,106.266220 
	C303.734558,106.469345 303.838928,106.831558 303.939331,106.843552 
	C305.202698,106.994469 306.472137,107.094536 307.853027,107.217690 
	C307.853027,109.055588 307.853027,110.695198 307.853027,112.667862 
	C300.061188,112.667862 292.190430,112.667862 284.157867,112.667862 
	C284.157867,110.984978 284.157867,109.366127 284.157867,107.344017 
	C285.206726,107.133148 286.391144,106.895020 288.802338,106.410263 
	C286.162628,106.108772 284.753387,105.947823 283.000732,105.747643 
	C283.000732,93.612450 282.703918,81.470398 283.246338,69.365959 
	C283.357391,66.887444 284.941040,64.315742 283.138794,60.849899 
	C294.944366,60.849899 305.811188,60.849899 316.761230,60.849899 
	C319.125488,78.382431 317.489014,96.437279 318.085907,114.727608 
	C306.370392,114.727608 294.987701,114.727608 283.605011,114.727608 
	C283.597626,114.540016 283.590240,114.352432 283.582886,114.164841 
	C291.887238,114.164841 300.191620,114.164841 308.743561,114.164841 
	C308.743561,111.325119 308.743561,108.916237 308.743561,106.001106 
	C307.500519,106.001106 306.241119,106.001106 304.560455,106.012817 
M302.302948,64.039772 
	C302.273376,64.474983 302.243805,64.910194 302.214203,65.345406 
	C302.673553,65.058083 303.132935,64.770760 303.946075,64.008087 
	C303.880096,63.729637 303.814148,63.451187 303.748199,63.172722 
	C303.450195,63.398628 303.152191,63.624538 302.302948,64.039772 
M291.000000,77.561615 
	C291.000000,86.484444 291.000000,95.407272 291.000000,104.330101 
	C291.221832,104.323624 291.443665,104.317154 291.665497,104.310684 
	C291.665497,92.437164 291.665497,80.563644 291.665497,68.690132 
	C291.443665,68.690292 291.221832,68.690453 291.000000,68.690613 
	C291.000000,71.322441 291.000000,73.954277 291.000000,77.561615 
M301.012817,79.960968 
	C301.012817,78.211327 301.012817,76.461685 301.012817,74.712036 
	C300.793335,74.737724 300.573853,74.763405 300.354370,74.789093 
	C300.354370,84.613998 300.354370,94.438911 300.354370,104.263824 
	C300.573853,104.262894 300.793335,104.261971 301.012817,104.261047 
	C301.012817,96.460464 301.012817,88.659882 301.012817,79.960968 
z"/>
<path fill="#D28F00" opacity="1.000000" stroke="none" 
	d="
M55.979202,21.121601 
	C65.428246,27.604052 74.616577,33.845982 84.756332,40.734249 
	C64.540054,40.734249 45.540310,40.734249 25.125727,40.734249 
	C34.212193,34.394680 42.297630,28.677818 50.483963,23.109280 
	C52.022251,22.062897 53.963295,21.608601 55.979202,21.121601 
z"/>
<path fill="#D28F00" opacity="1.000000" stroke="none" 
	d="
M100.605453,59.024673 
	C104.545128,58.045551 106.855042,59.444668 106.935242,63.085079 
	C107.125099,71.702507 107.244286,80.340279 106.782883,88.937141 
	C106.692276,90.625427 103.859207,92.166519 102.290970,93.775497 
	C101.194260,92.207619 99.206024,90.671333 99.149139,89.066597 
	C98.838020,80.290207 98.955177,71.496490 99.056030,62.710224 
	C99.069595,61.528061 99.822319,60.354382 100.605453,59.024673 
z"/>
<path fill="#030303" opacity="1.000000" stroke="none" 
	d="
M368.008545,106.511856 
	C367.669586,104.993935 367.054932,103.321938 367.039886,101.644562 
	C366.948730,91.488640 366.994476,81.331482 368.004242,71.127190 
	C368.004242,82.451538 368.004242,93.775894 367.995483,105.571640 
	C367.986694,106.043045 368.009918,106.355301 368.008545,106.511856 
z"/>
<path fill="#030303" opacity="1.000000" stroke="none" 
	d="
M680.009033,106.512016 
	C679.669617,104.994591 679.056458,103.323112 679.039795,101.645729 
	C678.945557,92.156219 678.994202,82.665306 680.004578,73.124176 
	C680.004578,83.782730 680.004578,94.441277 679.995850,105.571205 
	C679.987061,106.042580 680.010803,106.355240 680.009033,106.512016 
z"/>
<path fill="#FFFFFF" opacity="1.000000" stroke="none" 
	d="
M721.825684,114.244301 
	C730.641357,114.025574 739.085754,114.025574 747.530151,114.025574 
	C747.527588,114.171394 747.525024,114.317207 747.522461,114.463028 
	C738.833130,114.463028 730.143799,114.463028 721.825684,114.244301 
z"/>
<path fill="#FFFFFF" opacity="1.000000" stroke="none" 
	d="
M691.621643,114.013855 
	C699.845947,114.001625 707.631226,114.001625 715.416443,114.001625 
	C715.418213,114.281395 715.419922,114.561165 715.421692,114.840935 
	C707.269348,114.840935 699.116943,114.842331 690.964600,114.828957 
	C690.828552,114.828728 690.692810,114.648926 690.556885,114.552910 
	C690.765442,114.377296 690.973999,114.201691 691.621643,114.013855 
z"/>
<path fill="#030303" opacity="1.000000" stroke="none" 
	d="
M946.015503,104.120743 
	C945.996887,92.565353 945.996887,81.430550 945.996887,70.118401 
	C946.209656,70.304077 946.894958,70.622223 946.896851,70.944359 
	C946.961670,82.046242 946.962280,93.148529 946.966492,104.250763 
	C946.966553,104.405891 946.882080,104.697578 946.858459,104.695374 
	C946.581299,104.669540 946.308289,104.599632 946.015503,104.120743 
z"/>
<path fill="#000000" opacity="1.000000" stroke="none" 
	d="
M215.849609,113.999992 
	C209.750534,114.000000 204.133484,114.000000 198.260193,114.000000 
	C198.260193,111.337532 198.260193,108.932922 198.260193,106.259743 
	C199.595428,106.259743 200.975983,106.259743 202.356537,106.259743 
	C202.382767,106.378532 202.409012,106.497314 202.435242,106.616104 
	C201.358459,106.847748 200.281677,107.079399 199.120026,107.329308 
	C199.120026,109.106628 199.120026,110.749199 199.120026,112.696213 
	C205.607315,112.696213 212.138306,112.696213 218.814682,112.696213 
	C218.814682,110.841599 218.814682,109.094559 218.814682,107.205444 
	C216.903336,107.050247 215.161118,106.908783 213.418900,106.767319 
	C213.425919,106.594948 213.432938,106.422585 213.439957,106.250214 
	C215.492950,106.250214 217.545929,106.250214 219.801208,106.250214 
	C219.801208,108.611404 219.801208,110.894958 219.801208,113.662430 
	C218.769730,113.762787 217.550674,113.881386 215.849609,113.999992 
z"/>
<path fill="#060606" opacity="1.000000" stroke="none" 
	d="
M260.012054,97.263306 
	C259.913574,98.609772 259.815125,99.542908 259.716644,100.476044 
	C259.536316,100.464111 259.355957,100.452171 259.175629,100.440239 
	C259.175629,89.819725 259.175629,79.199211 259.175629,68.578697 
	C259.454437,68.574203 259.733246,68.569717 260.012054,68.565224 
	C260.012054,77.993477 260.012054,87.421722 260.012054,97.263306 
z"/>
<path fill="#000000" opacity="1.000000" stroke="none" 
	d="
M227.000000,76.100716 
	C227.000000,83.531677 227.000000,90.477432 227.000000,97.423180 
	C226.765991,97.421867 226.531982,97.420555 226.297974,97.419243 
	C226.297974,87.804832 226.297974,78.190430 226.297974,68.576027 
	C226.531982,68.568298 226.765991,68.560577 227.000000,68.552856 
	C227.000000,70.907074 227.000000,73.261292 227.000000,76.100716 
z"/>
<path fill="#000000" opacity="1.000000" stroke="none" 
	d="
M184.003677,92.000000 
	C189.121033,92.000000 193.742081,92.000000 198.363113,92.000000 
	C198.362106,92.227257 198.361099,92.454521 198.360077,92.681778 
	C189.122711,92.681778 179.885330,92.681778 170.647964,92.681778 
	C170.637711,92.454521 170.627472,92.227257 170.617233,92.000000 
	C174.913940,92.000000 179.210648,92.000000 184.003677,92.000000 
z"/>
<path fill="#000000" opacity="1.000000" stroke="none" 
	d="
M550.000000,89.993546 
	C550.000000,76.548820 550.000000,63.602825 550.000000,50.656830 
	C550.225769,50.656734 550.451477,50.656643 550.677246,50.656548 
	C550.677246,68.550491 550.677246,86.444443 550.677246,104.338387 
	C550.451477,104.348831 550.225769,104.359276 550.000000,104.369720 
	C550.000000,99.743912 550.000000,95.118095 550.000000,89.993546 
z"/>
<path fill="#000000" opacity="1.000000" stroke="none" 
	d="
M621.000000,92.975418 
	C621.000000,97.101418 621.000000,100.732376 621.000000,104.363342 
	C620.772949,104.360558 620.545959,104.357780 620.318909,104.355003 
	C620.318909,86.452209 620.318909,68.549416 620.318909,50.646626 
	C620.545959,50.642796 620.772949,50.638966 621.000000,50.635136 
	C621.000000,64.583549 621.000000,78.531967 621.000000,92.975418 
z"/>
<path fill="#050505" opacity="1.000000" stroke="none" 
	d="
M560.024353,61.550880 
	C560.010986,76.145309 560.010986,90.362984 560.010986,104.580658 
	C559.671021,104.580856 559.331116,104.581062 558.991150,104.581261 
	C558.991150,91.361809 558.986084,78.142342 558.999023,64.922897 
	C559.000305,63.602604 559.102112,62.281845 559.187073,60.963226 
	C559.194153,60.852638 559.506897,60.645851 559.545349,60.672791 
	C559.734070,60.804752 559.877991,61.000759 560.024353,61.550880 
z"/>
<path fill="#020100" opacity="1.000000" stroke="none" 
	d="
M45.994877,113.006302 
	C45.994877,111.029846 46.156479,109.516655 45.964783,108.049622 
	C45.373817,103.527023 46.997772,100.203690 51.273308,98.585747 
	C55.930309,96.823463 60.032108,98.417702 63.579319,101.515404 
	C64.341347,102.180870 64.913139,103.484627 64.934937,104.507942 
	C65.061211,110.436279 64.996628,116.368668 64.996628,122.647430 
	C58.636024,122.647430 52.755199,122.647430 45.994877,122.647430 
	C45.994877,119.618782 45.994877,116.554733 45.994877,113.006302 
z"/>
<path fill="#020100" opacity="1.000000" stroke="none" 
	d="
M26.017307,58.317192 
	C29.369898,57.007481 32.705410,56.161087 36.649490,55.160267 
	C36.649490,60.690784 36.649490,64.899284 36.649490,69.561234 
	C33.356056,69.561234 30.027683,69.561234 26.000227,69.561234 
	C26.000227,65.933449 26.000227,62.356983 26.017307,58.317192 
z"/>
<path fill="#020100" opacity="1.000000" stroke="none" 
	d="
M59.634388,69.841446 
	C56.399181,69.961502 53.610256,69.961502 50.411678,69.961502 
	C50.411678,65.316917 50.411678,60.990597 50.411678,56.324341 
	C53.754601,56.324341 56.972412,56.324341 61.268818,56.324341 
	C60.866245,60.863560 60.473457,65.292473 59.634388,69.841446 
z"/>
<path fill="#020200" opacity="1.000000" stroke="none" 
	d="
M26.149988,79.388687 
	C29.569134,78.524757 32.873516,78.107216 36.630722,77.632462 
	C36.630722,82.320114 36.630722,86.198830 36.630722,90.544456 
	C33.391327,90.544456 30.060345,90.544456 26.035225,90.544456 
	C26.035225,86.972458 26.035225,83.403763 26.149988,79.388687 
z"/>
<path fill="#020200" opacity="1.000000" stroke="none" 
	d="
M60.982460,80.307831 
	C60.999962,83.892357 60.999962,87.012764 60.999962,90.567825 
	C57.346767,90.567825 54.018665,90.567825 50.334927,90.567825 
	C50.334927,86.608513 50.334927,82.730537 50.334927,77.360115 
	C54.053459,78.228905 57.509205,79.036308 60.982460,80.307831 
z"/>
<path fill="#020200" opacity="1.000000" stroke="none" 
	d="
M29.194725,113.002075 
	C27.824787,112.135307 26.227505,111.340858 26.131592,110.394279 
	C25.804602,107.167206 26.006439,103.886551 26.006439,100.318893 
	C29.763744,100.318893 32.980816,100.318893 36.603607,100.318893 
	C36.603607,104.385681 36.603607,108.379601 36.603607,113.004662 
	C34.171356,113.004662 31.913424,113.004662 29.194725,113.002075 
z"/>
<path fill="#020200" opacity="1.000000" stroke="none" 
	d="
M75.997391,59.252884 
	C77.924484,53.111126 82.239990,57.343884 85.671783,55.876640 
	C85.671783,60.733612 85.671783,64.942444 85.671783,69.580528 
	C82.647903,69.580528 79.649323,69.580528 75.995094,69.580528 
	C75.995094,66.221779 75.995094,62.971149 75.997391,59.252884 
z"/>
<path fill="#030200" opacity="1.000000" stroke="none" 
	d="
M86.002884,103.236969 
	C86.005280,106.497841 86.005280,109.292152 86.005280,112.545151 
	C82.722488,112.545151 79.723900,112.545151 76.354263,112.545151 
	C76.354263,108.657585 76.354263,104.781845 76.354263,100.045769 
	C79.583565,101.296097 83.775772,96.949471 86.002884,103.236969 
z"/>
<path fill="#030200" opacity="1.000000" stroke="none" 
	d="
M76.589081,78.608154 
	C79.680275,78.280640 82.449547,78.280640 85.611511,78.280640 
	C85.611511,82.395607 85.611511,86.391792 85.611511,90.699326 
	C82.532349,90.699326 79.646820,90.699326 76.267166,90.699326 
	C76.267166,86.698708 76.267166,82.817192 76.589081,78.608154 
z"/>
<path fill="#080808" opacity="1.000000" stroke="none" 
	d="
M438.986145,76.487946 
	C439.074036,75.567741 439.161163,75.094437 439.248322,74.621140 
	C439.390869,74.623993 439.533386,74.626839 439.675934,74.629684 
	C439.675934,83.186462 439.675934,91.743240 439.675934,100.300018 
	C439.445770,100.305069 439.215576,100.310120 438.985413,100.315170 
	C438.985413,92.521729 438.985413,84.728287 438.986145,76.487946 
z"/>
<path fill="#0C0C0C" opacity="1.000000" stroke="none" 
	d="
M332.690582,74.975586 
	C334.070587,73.621506 335.013458,72.267990 335.806335,71.129814 
	C335.806335,72.245796 335.806335,73.893433 335.806335,75.784409 
	C333.104889,75.784409 330.354858,75.784409 327.286316,75.784409 
	C327.286316,72.356102 327.286316,68.838036 327.286316,65.319977 
	C327.473480,65.311737 327.660614,65.303497 327.847778,65.295258 
	C327.847778,68.270660 327.847778,71.246056 327.847778,74.711258 
	C329.456329,74.807976 330.854889,74.892067 332.690582,74.975586 
z"/>
<path fill="#040404" opacity="1.000000" stroke="none" 
	d="
M484.070129,80.991776 
	C489.170013,80.991776 493.784027,80.991776 498.398071,80.991776 
	C498.395599,81.224777 498.393158,81.457779 498.390717,81.690781 
	C490.513794,81.690781 482.636871,81.690781 474.759949,81.690781 
	C474.756622,81.457779 474.753296,81.224777 474.749969,80.991776 
	C477.694733,80.991776 480.639496,80.991776 484.070129,80.991776 
z"/>
<path fill="#000000" opacity="1.000000" stroke="none" 
	d="
M730.000000,75.000000 
	C730.000000,85.118797 730.000000,94.737602 730.000000,104.356400 
	C729.772827,104.356262 729.545654,104.356117 729.318481,104.355980 
	C729.318481,84.787102 729.318481,65.218224 729.318481,45.649345 
	C729.545654,45.644222 729.772827,45.639095 730.000000,45.633968 
	C730.000000,55.255981 730.000000,64.877991 730.000000,75.000000 
z"/>
<path fill="#000000" opacity="1.000000" stroke="none" 
	d="
M698.000000,82.999878 
	C698.000000,70.218002 698.000000,57.936089 698.000000,45.654171 
	C698.226013,45.654255 698.451965,45.654335 698.677979,45.654419 
	C698.677979,65.216301 698.677979,84.778175 698.677979,104.340057 
	C698.451965,104.347191 698.226013,104.354324 698.000000,104.361450 
	C698.000000,97.407578 698.000000,90.453705 698.000000,82.999878 
z"/>
<path fill="#000000" opacity="1.000000" stroke="none" 
	d="
M817.720093,104.202957 
	C817.470093,92.539062 817.470093,80.524918 817.470093,68.510773 
	C817.636780,68.509377 817.803406,68.507988 817.970093,68.506599 
	C817.970093,80.288635 817.970093,92.070671 817.720093,104.202957 
z"/>
<path fill="#060606" opacity="1.000000" stroke="none" 
	d="
M828.012390,88.011993 
	C828.012390,93.796677 828.012390,99.085342 828.012390,104.374016 
	C827.780823,104.372658 827.549316,104.371300 827.317749,104.369942 
	C827.317749,94.158150 827.317749,83.946365 827.317749,73.734573 
	C827.549316,73.726013 827.780823,73.717453 828.012390,73.708885 
	C828.012390,78.311249 828.012390,82.913605 828.012390,88.011993 
z"/>
<path fill="#000000" opacity="1.000000" stroke="none" 
	d="
M291.000000,77.073860 
	C291.000000,73.954277 291.000000,71.322441 291.000000,68.690613 
	C291.221832,68.690453 291.443665,68.690292 291.665497,68.690132 
	C291.665497,80.563644 291.665497,92.437164 291.665497,104.310684 
	C291.443665,104.317154 291.221832,104.323624 291.000000,104.330101 
	C291.000000,95.407272 291.000000,86.484444 291.000000,77.073860 
z"/>
<path fill="#070707" opacity="1.000000" stroke="none" 
	d="
M301.012817,80.410133 
	C301.012817,88.659882 301.012817,96.460464 301.012817,104.261047 
	C300.793335,104.261971 300.573853,104.262894 300.354370,104.263824 
	C300.354370,94.438911 300.354370,84.613998 300.354370,74.789093 
	C300.573853,74.763405 300.793335,74.737724 301.012817,74.712036 
	C301.012817,76.461685 301.012817,78.211327 301.012817,80.410133 
z"/>
<path fill="#353535" opacity="1.000000" stroke="none" 
	d="
M303.592285,64.483437 
	C303.132935,64.770760 302.673553,65.058083 302.214203,65.345406 
	C302.243805,64.910194 302.273376,64.474983 302.756165,64.111473 
	C303.209351,64.183174 303.592285,64.483437 303.592285,64.483437 
z"/>
<path fill="#353535" opacity="1.000000" stroke="none" 
	d="
M303.031799,64.016808 
	C303.152191,63.624538 303.450195,63.398628 303.748169,63.172729 
	C303.814148,63.451187 303.880096,63.729637 303.769165,64.245758 
	C303.592285,64.483437 303.209351,64.183174 303.031799,64.016808 
z"/>
</svg>